<svg width="767" height="494" viewBox="0 0 767 494" fill="none" xmlns="http://www.w3.org/2000/svg">
<path d="M110.509 281.55C54.1594 281.55 14.2594 242.35 14.2594 186.7C14.2594 131.05 54.1594 91.85 110.859 91.85C141.659 91.85 169.309 103.05 187.159 123.35L156.009 158.7C144.809 147.5 129.059 140.85 114.359 140.85C88.4594 140.85 70.6094 159.75 70.6094 186.7C70.6094 213.65 87.7594 232.55 114.709 232.55C131.509 232.55 148.309 224.85 158.459 211.2L191.359 244.8C171.759 269.3 143.759 281.55 110.509 281.55ZM281.616 92.55C335.166 92.55 365.266 118.8 365.266 164.65V277H315.916L314.866 254.95C300.166 269.65 277.416 279.45 253.266 279.45C215.816 279.45 191.316 256.7 191.316 223.1C191.316 185.3 221.416 162.55 270.416 162.55C284.416 162.55 298.066 164.3 312.766 168.15V163.6C312.766 144.35 300.866 135.95 273.916 135.95C255.016 135.95 238.566 140.5 217.216 149.6L203.566 110.05C231.216 97.45 252.566 92.55 281.616 92.55ZM270.766 239.9C294.566 239.9 311.716 224.85 313.466 204.9C300.166 201.05 287.916 198.95 277.766 198.95C257.116 198.95 246.266 206.3 246.266 220.3C246.266 232.55 254.666 239.9 270.766 239.9ZM484.927 71.55C450.627 71.55 432.427 55.45 428.227 22.55L462.177 15.9C464.277 32.7 471.627 40.4 484.927 40.4C497.877 40.4 505.227 32.7 507.327 15.9L541.277 22.55C537.427 55.45 518.877 71.55 484.927 71.55ZM449.577 196.15L527.627 96.4H575.577V277H519.927V177.25L441.877 277H393.927V96.4H449.577V196.15ZM591.489 96.4H764.739V147.85H706.989V277H649.939V147.85H591.489V96.4ZM478.13 375.35V313.4H535.18V494H478.13V427.15H413.38V494H356.33V313.4H413.38V375.35H478.13ZM687.665 375.35V313.4H744.715V494H687.665V427.15H622.915V494H565.865V313.4H622.915V375.35H687.665Z" fill="#5888DE"/>
<path d="M97.7261 266.55C41.3761 266.55 1.47605 227.35 1.47605 171.7C1.47605 116.05 41.3761 76.85 98.0761 76.85C128.876 76.85 156.526 88.05 174.376 108.35L143.226 143.7C132.026 132.5 116.276 125.85 101.576 125.85C75.6761 125.85 57.8261 144.75 57.8261 171.7C57.8261 198.65 74.9761 217.55 101.926 217.55C118.726 217.55 135.526 209.85 145.676 196.2L178.576 229.8C158.976 254.3 130.976 266.55 97.7261 266.55ZM268.832 77.55C322.382 77.55 352.482 103.8 352.482 149.65V262H303.132L302.082 239.95C287.382 254.65 264.632 264.45 240.482 264.45C203.032 264.45 178.532 241.7 178.532 208.1C178.532 170.3 208.632 147.55 257.632 147.55C271.632 147.55 285.282 149.3 299.982 153.15V148.6C299.982 129.35 288.082 120.95 261.132 120.95C242.232 120.95 225.782 125.5 204.432 134.6L190.782 95.05C218.432 82.45 239.782 77.55 268.832 77.55ZM257.982 224.9C281.782 224.9 298.932 209.85 300.682 189.9C287.382 186.05 275.132 183.95 264.982 183.95C244.332 183.95 233.482 191.3 233.482 205.3C233.482 217.55 241.882 224.9 257.982 224.9ZM472.144 56.55C437.844 56.55 419.644 40.45 415.444 7.54998L449.394 0.899982C451.494 17.7 458.844 25.4 472.144 25.4C485.094 25.4 492.444 17.7 494.544 0.899982L528.494 7.54998C524.644 40.45 506.094 56.55 472.144 56.55ZM436.794 181.15L514.844 81.4H562.794V262H507.144V162.25L429.094 262H381.144V81.4H436.794V181.15ZM578.705 81.4H751.955V132.85H694.205V262H637.155V132.85H578.705V81.4ZM465.346 360.35V298.4H522.396V479H465.346V412.15H400.596V479H343.546V298.4H400.596V360.35H465.346ZM674.882 360.35V298.4H731.932V479H674.882V412.15H610.132V479H553.082V298.4H610.132V360.35H674.882Z" fill="#B9CFF8"/>
</svg>
