<svg width="71" height="50" viewBox="0 0 71 50" fill="none" xmlns="http://www.w3.org/2000/svg">
<g id="Vector">
<path d="M4.58897 0.589517C2.98998 0.931181 1.62333 2.0245 0.926338 3.51416C0.557341 4.27948 0.557341 4.33415 0.516341 7.66878L0.475342 11.0581H70.4753L70.4343 7.66878C70.3933 4.33415 70.3933 4.27948 70.0244 3.51416C69.3137 1.9835 67.8514 0.849182 66.1704 0.548518C64.9541 0.329853 5.61396 0.357186 4.58897 0.589517Z" fill="#5179C4"/>
<path d="M0.557341 45.7028L0.926338 46.4817C1.637 48.0124 3.09932 49.1467 4.7803 49.4474C5.92829 49.6524 65.0224 49.6524 66.1704 49.4474C67.8514 49.1467 69.3137 48.0124 70.0244 46.4817L70.3933 45.7028L70.4617 17.8913H0.489008L0.557341 45.7028ZM24.9521 31.9679H7.59561V24.9979H24.9521V31.9679Z" fill="#5179C4"/>
</g>
</svg>
