<svg width="300" height="732" viewBox="0 0 300 732" fill="none" xmlns="http://www.w3.org/2000/svg">
<circle cx="6" cy="42" r="6" fill="#E9E9E9" fill-opacity="0.7"/>
<circle cx="6" cy="114" r="6" fill="#E9E9E9" fill-opacity="0.7"/>
<circle cx="6" cy="186" r="6" fill="#E9E9E9" fill-opacity="0.7"/>
<circle cx="6" cy="6" r="6" fill="#E9E9E9" fill-opacity="0.7"/>
<circle cx="6" cy="78" r="6" fill="#E9E9E9" fill-opacity="0.7"/>
<circle cx="6" cy="150" r="6" fill="#E9E9E9" fill-opacity="0.7"/>
<circle cx="42" cy="42" r="6" fill="#E9E9E9" fill-opacity="0.7"/>
<circle cx="42" cy="114" r="6" fill="#E9E9E9" fill-opacity="0.7"/>
<circle cx="42" cy="186" r="6" fill="#E9E9E9" fill-opacity="0.7"/>
<circle cx="42" cy="6" r="6" fill="#E9E9E9" fill-opacity="0.7"/>
<circle cx="42" cy="78" r="6" fill="#E9E9E9" fill-opacity="0.7"/>
<circle cx="42" cy="150" r="6" fill="#E9E9E9" fill-opacity="0.7"/>
<circle cx="78" cy="42" r="6" fill="#E9E9E9" fill-opacity="0.7"/>
<circle cx="78" cy="114" r="6" fill="#E9E9E9" fill-opacity="0.7"/>
<circle cx="78" cy="186" r="6" fill="#E9E9E9" fill-opacity="0.7"/>
<circle cx="78" cy="6" r="6" fill="#E9E9E9" fill-opacity="0.7"/>
<circle cx="78" cy="78" r="6" fill="#E9E9E9" fill-opacity="0.7"/>
<circle cx="78" cy="150" r="6" fill="#E9E9E9" fill-opacity="0.7"/>
<circle cx="114" cy="42" r="6" fill="#E9E9E9" fill-opacity="0.7"/>
<circle cx="114" cy="114" r="6" fill="#E9E9E9" fill-opacity="0.7"/>
<circle cx="114" cy="186" r="6" fill="#E9E9E9" fill-opacity="0.7"/>
<circle cx="114" cy="6" r="6" fill="#E9E9E9" fill-opacity="0.7"/>
<circle cx="114" cy="78" r="6" fill="#E9E9E9" fill-opacity="0.7"/>
<circle cx="114" cy="150" r="6" fill="#E9E9E9" fill-opacity="0.7"/>
<circle cx="150" cy="42" r="6" fill="#E9E9E9" fill-opacity="0.7"/>
<circle cx="150" cy="114" r="6" fill="#E9E9E9" fill-opacity="0.7"/>
<circle cx="150" cy="186" r="6" fill="#E9E9E9" fill-opacity="0.7"/>
<circle cx="150" cy="6" r="6" fill="#E9E9E9" fill-opacity="0.7"/>
<circle cx="150" cy="78" r="6" fill="#E9E9E9" fill-opacity="0.7"/>
<circle cx="150" cy="150" r="6" fill="#E9E9E9" fill-opacity="0.7"/>
<circle cx="186" cy="42" r="6" fill="#E9E9E9" fill-opacity="0.7"/>
<circle cx="186" cy="114" r="6" fill="#E9E9E9" fill-opacity="0.7"/>
<circle cx="186" cy="186" r="6" fill="#E9E9E9" fill-opacity="0.7"/>
<circle cx="186" cy="6" r="6" fill="#E9E9E9" fill-opacity="0.7"/>
<circle cx="186" cy="78" r="6" fill="#E9E9E9" fill-opacity="0.7"/>
<circle cx="186" cy="150" r="6" fill="#E9E9E9" fill-opacity="0.7"/>
<circle cx="222" cy="42" r="6" fill="#E9E9E9" fill-opacity="0.7"/>
<circle cx="222" cy="114" r="6" fill="#E9E9E9" fill-opacity="0.7"/>
<circle cx="222" cy="186" r="6" fill="#E9E9E9" fill-opacity="0.7"/>
<circle cx="222" cy="6" r="6" fill="#E9E9E9" fill-opacity="0.7"/>
<circle cx="222" cy="78" r="6" fill="#E9E9E9" fill-opacity="0.7"/>
<circle cx="222" cy="150" r="6" fill="#E9E9E9" fill-opacity="0.7"/>
<circle cx="258" cy="42" r="6" fill="#E9E9E9" fill-opacity="0.7"/>
<circle cx="258" cy="114" r="6" fill="#E9E9E9" fill-opacity="0.7"/>
<circle cx="258" cy="186" r="6" fill="#E9E9E9" fill-opacity="0.7"/>
<circle cx="258" cy="6" r="6" fill="#E9E9E9" fill-opacity="0.7"/>
<circle cx="258" cy="78" r="6" fill="#E9E9E9" fill-opacity="0.7"/>
<circle cx="258" cy="150" r="6" fill="#E9E9E9" fill-opacity="0.7"/>
<circle cx="294" cy="42" r="6" fill="#E9E9E9" fill-opacity="0.7"/>
<circle cx="294" cy="114" r="6" fill="#E9E9E9" fill-opacity="0.7"/>
<circle cx="294" cy="186" r="6" fill="#E9E9E9" fill-opacity="0.7"/>
<circle cx="6" cy="222" r="6" fill="#E9E9E9" fill-opacity="0.7"/>
<circle cx="42" cy="222" r="6" fill="#E9E9E9" fill-opacity="0.7"/>
<circle cx="78" cy="222" r="6" fill="#E9E9E9" fill-opacity="0.7"/>
<circle cx="114" cy="222" r="6" fill="#E9E9E9" fill-opacity="0.7"/>
<circle cx="150" cy="222" r="6" fill="#E9E9E9" fill-opacity="0.7"/>
<circle cx="186" cy="222" r="6" fill="#E9E9E9" fill-opacity="0.7"/>
<circle cx="222" cy="222" r="6" fill="#E9E9E9" fill-opacity="0.7"/>
<circle cx="258" cy="222" r="6" fill="#E9E9E9" fill-opacity="0.7"/>
<circle cx="294" cy="222" r="6" fill="#E9E9E9" fill-opacity="0.7"/>
<circle cx="294" cy="6" r="6" fill="#E9E9E9" fill-opacity="0.7"/>
<circle cx="294" cy="78" r="6" fill="#E9E9E9" fill-opacity="0.7"/>
<circle cx="294" cy="150" r="6" fill="#E9E9E9" fill-opacity="0.7"/>
<circle cx="6" cy="294" r="6" fill="#E9E9E9" fill-opacity="0.7"/>
<circle cx="6" cy="366" r="6" fill="#E9E9E9" fill-opacity="0.7"/>
<circle cx="6" cy="438" r="6" fill="#E9E9E9" fill-opacity="0.7"/>
<circle cx="6" cy="258" r="6" fill="#E9E9E9" fill-opacity="0.7"/>
<circle cx="6" cy="330" r="6" fill="#E9E9E9" fill-opacity="0.7"/>
<circle cx="6" cy="402" r="6" fill="#E9E9E9" fill-opacity="0.7"/>
<circle cx="42" cy="294" r="6" fill="#E9E9E9" fill-opacity="0.7"/>
<circle cx="42" cy="366" r="6" fill="#E9E9E9" fill-opacity="0.7"/>
<circle cx="42" cy="438" r="6" fill="#E9E9E9" fill-opacity="0.7"/>
<circle cx="42" cy="258" r="6" fill="#E9E9E9" fill-opacity="0.7"/>
<circle cx="42" cy="330" r="6" fill="#E9E9E9" fill-opacity="0.7"/>
<circle cx="42" cy="402" r="6" fill="#E9E9E9" fill-opacity="0.7"/>
<circle cx="78" cy="294" r="6" fill="#E9E9E9" fill-opacity="0.7"/>
<circle cx="78" cy="366" r="6" fill="#E9E9E9" fill-opacity="0.7"/>
<circle cx="78" cy="438" r="6" fill="#E9E9E9" fill-opacity="0.7"/>
<circle cx="78" cy="258" r="6" fill="#E9E9E9" fill-opacity="0.7"/>
<circle cx="78" cy="330" r="6" fill="#E9E9E9" fill-opacity="0.7"/>
<circle cx="78" cy="402" r="6" fill="#E9E9E9" fill-opacity="0.7"/>
<circle cx="114" cy="294" r="6" fill="#E9E9E9" fill-opacity="0.7"/>
<circle cx="114" cy="366" r="6" fill="#E9E9E9" fill-opacity="0.7"/>
<circle cx="114" cy="438" r="6" fill="#E9E9E9" fill-opacity="0.7"/>
<circle cx="114" cy="258" r="6" fill="#E9E9E9" fill-opacity="0.7"/>
<circle cx="114" cy="330" r="6" fill="#E9E9E9" fill-opacity="0.7"/>
<circle cx="114" cy="402" r="6" fill="#E9E9E9" fill-opacity="0.7"/>
<circle cx="150" cy="294" r="6" fill="#E9E9E9" fill-opacity="0.7"/>
<circle cx="150" cy="366" r="6" fill="#E9E9E9" fill-opacity="0.7"/>
<circle cx="150" cy="438" r="6" fill="#E9E9E9" fill-opacity="0.7"/>
<circle cx="150" cy="258" r="6" fill="#E9E9E9" fill-opacity="0.7"/>
<circle cx="150" cy="330" r="6" fill="#E9E9E9" fill-opacity="0.7"/>
<circle cx="150" cy="402" r="6" fill="#E9E9E9" fill-opacity="0.7"/>
<circle cx="186" cy="294" r="6" fill="#E9E9E9" fill-opacity="0.7"/>
<circle cx="186" cy="366" r="6" fill="#E9E9E9" fill-opacity="0.7"/>
<circle cx="186" cy="438" r="6" fill="#E9E9E9" fill-opacity="0.7"/>
<circle cx="186" cy="258" r="6" fill="#E9E9E9" fill-opacity="0.7"/>
<circle cx="186" cy="330" r="6" fill="#E9E9E9" fill-opacity="0.7"/>
<circle cx="186" cy="402" r="6" fill="#E9E9E9" fill-opacity="0.7"/>
<circle cx="222" cy="294" r="6" fill="#E9E9E9" fill-opacity="0.7"/>
<circle cx="222" cy="366" r="6" fill="#E9E9E9" fill-opacity="0.7"/>
<circle cx="222" cy="438" r="6" fill="#E9E9E9" fill-opacity="0.7"/>
<circle cx="222" cy="258" r="6" fill="#E9E9E9" fill-opacity="0.7"/>
<circle cx="222" cy="330" r="6" fill="#E9E9E9" fill-opacity="0.7"/>
<circle cx="222" cy="402" r="6" fill="#E9E9E9" fill-opacity="0.7"/>
<circle cx="258" cy="294" r="6" fill="#E9E9E9" fill-opacity="0.7"/>
<circle cx="258" cy="366" r="6" fill="#E9E9E9" fill-opacity="0.7"/>
<circle cx="258" cy="438" r="6" fill="#E9E9E9" fill-opacity="0.7"/>
<circle cx="258" cy="258" r="6" fill="#E9E9E9" fill-opacity="0.7"/>
<circle cx="258" cy="330" r="6" fill="#E9E9E9" fill-opacity="0.7"/>
<circle cx="258" cy="402" r="6" fill="#E9E9E9" fill-opacity="0.7"/>
<circle cx="294" cy="294" r="6" fill="#E9E9E9" fill-opacity="0.7"/>
<circle cx="294" cy="366" r="6" fill="#E9E9E9" fill-opacity="0.7"/>
<circle cx="294" cy="438" r="6" fill="#E9E9E9" fill-opacity="0.7"/>
<circle cx="6" cy="474" r="6" fill="#E9E9E9" fill-opacity="0.7"/>
<circle cx="42" cy="474" r="6" fill="#E9E9E9" fill-opacity="0.7"/>
<circle cx="78" cy="474" r="6" fill="#E9E9E9" fill-opacity="0.7"/>
<circle cx="114" cy="474" r="6" fill="#E9E9E9" fill-opacity="0.7"/>
<circle cx="150" cy="474" r="6" fill="#E9E9E9" fill-opacity="0.7"/>
<circle cx="186" cy="474" r="6" fill="#E9E9E9" fill-opacity="0.7"/>
<circle cx="222" cy="474" r="6" fill="#E9E9E9" fill-opacity="0.7"/>
<circle cx="258" cy="474" r="6" fill="#E9E9E9" fill-opacity="0.7"/>
<circle cx="294" cy="474" r="6" fill="#E9E9E9" fill-opacity="0.7"/>
<circle cx="294" cy="258" r="6" fill="#E9E9E9" fill-opacity="0.7"/>
<circle cx="294" cy="330" r="6" fill="#E9E9E9" fill-opacity="0.7"/>
<circle cx="294" cy="402" r="6" fill="#E9E9E9" fill-opacity="0.7"/>
<circle cx="6" cy="546" r="6" fill="#E9E9E9" fill-opacity="0.7"/>
<circle cx="6" cy="618" r="6" fill="#E9E9E9" fill-opacity="0.7"/>
<circle cx="6" cy="690" r="6" fill="#E9E9E9" fill-opacity="0.7"/>
<circle cx="6" cy="510" r="6" fill="#E9E9E9" fill-opacity="0.7"/>
<circle cx="6" cy="582" r="6" fill="#E9E9E9" fill-opacity="0.7"/>
<circle cx="6" cy="654" r="6" fill="#E9E9E9" fill-opacity="0.7"/>
<circle cx="42" cy="546" r="6" fill="#E9E9E9" fill-opacity="0.7"/>
<circle cx="42" cy="618" r="6" fill="#E9E9E9" fill-opacity="0.7"/>
<circle cx="42" cy="690" r="6" fill="#E9E9E9" fill-opacity="0.7"/>
<circle cx="42" cy="510" r="6" fill="#E9E9E9" fill-opacity="0.7"/>
<circle cx="42" cy="582" r="6" fill="#E9E9E9" fill-opacity="0.7"/>
<circle cx="42" cy="654" r="6" fill="#E9E9E9" fill-opacity="0.7"/>
<circle cx="78" cy="546" r="6" fill="#E9E9E9" fill-opacity="0.7"/>
<circle cx="78" cy="618" r="6" fill="#E9E9E9" fill-opacity="0.7"/>
<circle cx="78" cy="690" r="6" fill="#E9E9E9" fill-opacity="0.7"/>
<circle cx="78" cy="510" r="6" fill="#E9E9E9" fill-opacity="0.7"/>
<circle cx="78" cy="582" r="6" fill="#E9E9E9" fill-opacity="0.7"/>
<circle cx="78" cy="654" r="6" fill="#E9E9E9" fill-opacity="0.7"/>
<circle cx="114" cy="546" r="6" fill="#E9E9E9" fill-opacity="0.7"/>
<circle cx="114" cy="618" r="6" fill="#E9E9E9" fill-opacity="0.7"/>
<circle cx="114" cy="690" r="6" fill="#E9E9E9" fill-opacity="0.7"/>
<circle cx="114" cy="510" r="6" fill="#E9E9E9" fill-opacity="0.7"/>
<circle cx="114" cy="582" r="6" fill="#E9E9E9" fill-opacity="0.7"/>
<circle cx="114" cy="654" r="6" fill="#E9E9E9" fill-opacity="0.7"/>
<circle cx="150" cy="546" r="6" fill="#E9E9E9" fill-opacity="0.7"/>
<circle cx="150" cy="618" r="6" fill="#E9E9E9" fill-opacity="0.7"/>
<circle cx="150" cy="690" r="6" fill="#E9E9E9" fill-opacity="0.7"/>
<circle cx="150" cy="510" r="6" fill="#E9E9E9" fill-opacity="0.7"/>
<circle cx="150" cy="582" r="6" fill="#E9E9E9" fill-opacity="0.7"/>
<circle cx="150" cy="654" r="6" fill="#E9E9E9" fill-opacity="0.7"/>
<circle cx="186" cy="546" r="6" fill="#E9E9E9" fill-opacity="0.7"/>
<circle cx="186" cy="618" r="6" fill="#E9E9E9" fill-opacity="0.7"/>
<circle cx="186" cy="690" r="6" fill="#E9E9E9" fill-opacity="0.7"/>
<circle cx="186" cy="510" r="6" fill="#E9E9E9" fill-opacity="0.7"/>
<circle cx="186" cy="582" r="6" fill="#E9E9E9" fill-opacity="0.7"/>
<circle cx="186" cy="654" r="6" fill="#E9E9E9" fill-opacity="0.7"/>
<circle cx="222" cy="546" r="6" fill="#E9E9E9" fill-opacity="0.7"/>
<circle cx="222" cy="618" r="6" fill="#E9E9E9" fill-opacity="0.7"/>
<circle cx="222" cy="690" r="6" fill="#E9E9E9" fill-opacity="0.7"/>
<circle cx="222" cy="510" r="6" fill="#E9E9E9" fill-opacity="0.7"/>
<circle cx="222" cy="582" r="6" fill="#E9E9E9" fill-opacity="0.7"/>
<circle cx="222" cy="654" r="6" fill="#E9E9E9" fill-opacity="0.7"/>
<circle cx="258" cy="546" r="6" fill="#E9E9E9" fill-opacity="0.7"/>
<circle cx="258" cy="618" r="6" fill="#E9E9E9" fill-opacity="0.7"/>
<circle cx="258" cy="690" r="6" fill="#E9E9E9" fill-opacity="0.7"/>
<circle cx="258" cy="510" r="6" fill="#E9E9E9" fill-opacity="0.7"/>
<circle cx="258" cy="582" r="6" fill="#E9E9E9" fill-opacity="0.7"/>
<circle cx="258" cy="654" r="6" fill="#E9E9E9" fill-opacity="0.7"/>
<circle cx="294" cy="546" r="6" fill="#E9E9E9" fill-opacity="0.7"/>
<circle cx="294" cy="618" r="6" fill="#E9E9E9" fill-opacity="0.7"/>
<circle cx="294" cy="690" r="6" fill="#E9E9E9" fill-opacity="0.7"/>
<circle cx="6" cy="726" r="6" fill="#E9E9E9" fill-opacity="0.7"/>
<circle cx="42" cy="726" r="6" fill="#E9E9E9" fill-opacity="0.7"/>
<circle cx="78" cy="726" r="6" fill="#E9E9E9" fill-opacity="0.7"/>
<circle cx="114" cy="726" r="6" fill="#E9E9E9" fill-opacity="0.7"/>
<circle cx="150" cy="726" r="6" fill="#E9E9E9" fill-opacity="0.7"/>
<circle cx="186" cy="726" r="6" fill="#E9E9E9" fill-opacity="0.7"/>
<circle cx="222" cy="726" r="6" fill="#E9E9E9" fill-opacity="0.7"/>
<circle cx="258" cy="726" r="6" fill="#E9E9E9" fill-opacity="0.7"/>
<circle cx="294" cy="726" r="6" fill="#E9E9E9" fill-opacity="0.7"/>
<circle cx="294" cy="510" r="6" fill="#E9E9E9" fill-opacity="0.7"/>
<circle cx="294" cy="582" r="6" fill="#E9E9E9" fill-opacity="0.7"/>
<circle cx="294" cy="654" r="6" fill="#E9E9E9" fill-opacity="0.7"/>
</svg>
