<svg width="71" height="70" viewBox="0 0 71 70" fill="none" xmlns="http://www.w3.org/2000/svg">
<path id="1 &#208;&#188;&#208;&#184;&#209;&#136;&#208;&#181;&#208;&#189;&#209;&#140; 1 (Traced)" fill-rule="evenodd" clip-rule="evenodd" d="M9.98829 0.138374C9.83384 0.200972 9.51101 0.475966 9.27073 0.749456L8.83405 1.24696V4.72744V8.20792H5.27512H1.71632L1.16634 8.72086C0.744825 9.11395 0.598581 9.36735 0.53981 9.80567C0.355842 11.1765 0.108047 10.8693 6.89788 17.6884C10.3307 21.1362 13.3792 24.1345 13.6724 24.3514L14.2055 24.7458H18.1834H22.1613L27.7645 30.363C30.8461 33.4524 33.6652 36.2201 34.0291 36.5134C34.6344 37.0015 34.7606 37.0467 35.5163 37.0467C36.3091 37.0467 36.366 37.0228 36.9392 36.4497C37.5123 35.8765 37.5362 35.8197 37.5362 35.0268C37.5362 34.2711 37.491 34.145 37.0029 33.5396C36.7096 33.1758 33.9419 30.3567 30.8524 27.275L25.2353 21.6718L25.2343 17.7076C25.2335 14.1245 25.2099 13.7075 24.9882 13.3713C24.5705 12.7379 12.0908 0.264937 11.742 0.13236C11.3411 -0.0200346 10.3714 -0.0167544 9.98829 0.138374ZM31.7274 0.166393C28.9625 0.478153 24.9447 1.56719 22.0936 2.77761C21.3784 3.08116 20.7654 3.35315 20.7312 3.38213C20.6971 3.41097 22.0809 4.85017 23.8065 6.58064C27.374 10.158 26.795 9.86485 29.0886 9.25595C33.0511 8.20382 37.9666 8.21407 42.121 9.28315C51.3063 11.647 58.8357 19.1764 61.1995 28.3616C62.2839 32.5756 62.2839 37.4176 61.1995 41.6316C58.8357 50.8168 51.3063 58.3462 42.121 60.71C37.907 61.7944 33.0651 61.7944 28.8511 60.71C19.6658 58.3462 12.1364 50.8168 9.77261 41.6316C8.70352 37.4771 8.69327 32.5617 9.74541 28.5992C10.3543 26.3056 10.6475 26.8845 7.0701 23.317C5.33963 21.5915 3.90042 20.2076 3.87158 20.2418C3.84261 20.2759 3.57062 20.8889 3.26706 21.6042C2.0069 24.5724 0.964328 28.4895 0.640814 31.4718C0.431561 33.4001 0.464364 37.2702 0.706692 39.2377C2.66582 55.1476 15.3262 67.8041 31.2547 69.7761C33.4505 70.0479 37.5216 70.0479 39.7174 69.7761C51.4618 68.3221 61.6572 61.0542 66.9273 50.3796C69.3471 45.4781 70.4753 40.5865 70.4753 34.9966C70.4753 29.4066 69.3471 24.5151 66.9273 19.6136C61.6625 8.94966 51.4393 1.65945 39.7271 0.217236C37.8592 -0.0127908 33.5586 -0.0401262 31.7274 0.166393ZM32.4748 16.7482C31.9087 16.8552 30.9861 17.0864 30.4246 17.2621L29.4039 17.5815L29.3663 18.9427L29.3288 20.3038L31.6241 22.5944L33.9196 24.8848L35.6937 24.9227C37.1018 24.9528 37.6684 25.0256 38.4396 25.2761C41.6618 26.3229 44.1422 28.8016 45.2113 32.043C45.4881 32.8823 45.5318 33.285 45.5318 34.9966C45.5318 36.7082 45.4881 37.1108 45.2113 37.9502C44.1429 41.1894 41.6789 43.6534 38.4396 44.7218C37.6003 44.9986 37.1977 45.0423 35.486 45.0423C33.7744 45.0423 33.3718 44.9986 32.5325 44.7218C29.291 43.6528 26.8124 41.1723 25.7656 37.9502C25.5151 37.1789 25.4422 36.6124 25.4121 35.2042L25.3743 33.4301L23.0838 31.1346L20.7933 28.8393L19.4321 28.8769L18.0709 28.9145L17.754 29.9274C17.1641 31.8126 16.9984 33.2162 17.0747 35.68C17.1303 37.4732 17.2155 38.2151 17.4902 39.3019C18.1819 42.0386 19.2681 44.2823 20.9305 46.4091C23.5242 49.7271 26.9491 51.9188 31.2491 53.0124C32.5741 53.3494 32.8992 53.3775 35.486 53.3775C38.0729 53.3775 38.3979 53.3494 39.723 53.0124C44.023 51.9188 47.4479 49.7271 50.0416 46.4091C51.7163 44.2666 52.7861 42.0484 53.5018 39.2336C53.8389 37.9085 53.8669 37.5835 53.8669 34.9966C53.8669 32.4097 53.8389 32.0847 53.5018 30.7596C53.0143 28.8426 52.4359 27.3685 51.5934 25.8961C49.0035 21.3694 44.9393 18.3057 39.7914 16.9994C38.6385 16.7069 38.0396 16.6448 35.9644 16.603C34.2226 16.568 33.2037 16.6104 32.4748 16.7482Z" fill="#5179C4"/>
</svg>
