<svg width="71" height="68" viewBox="0 0 71 68" fill="none" xmlns="http://www.w3.org/2000/svg">
<path fill-rule="evenodd" clip-rule="evenodd" d="M13.513 0.464478C9.09396 1.52295 4.99635 4.61644 2.5088 8.77173C0.888045 11.479 0.318841 14.1306 0.511227 18.0755C0.69933 21.9297 1.27955 23.8251 3.76649 28.7079C6.12589 33.3405 10.6551 40.1607 14.6196 45.0519C15.6473 46.3198 16.901 47.8806 17.4057 48.5211C18.2722 49.6204 20.3682 52.061 24.2594 56.5016C27.6872 60.4136 35.0562 68 35.4279 68C35.7879 68 37 66.8031 41.7215 61.7858C44.2947 59.0514 52.6845 49.491 53.3161 48.5734C53.584 48.1844 54.5738 46.9207 55.5158 45.7652C61.8034 38.0519 67.0586 29.6706 69.3052 23.7725C70.5335 20.5479 70.8311 15.9852 70.0249 12.7342C69.1761 9.31245 66.2989 5.22093 63.2696 3.12848C57.2311 -1.04283 48.7771 -1.04283 42.8196 3.12848C39.9638 5.12784 36.977 9.14531 36.2292 11.9928C35.4043 15.1346 35.4251 15.1117 35.0318 13.3208C33.6835 7.18675 28.3812 1.91919 22.0759 0.450272C19.7116 -0.100724 15.8452 -0.0943765 13.513 0.464478Z" fill="#5179C4"/>
</svg>
