<svg width="71" height="98" viewBox="0 0 71 98" fill="none" xmlns="http://www.w3.org/2000/svg">
<path d="M31.5823 97.1161C31.0751 97.1155 30.5719 97.0267 30.0951 96.8536C29.1754 96.5169 28.3954 95.8812 27.8798 95.0485C27.3643 94.2158 27.1432 93.2341 27.2519 92.2607L30.62 61.2478H4.85612C4.06146 61.249 3.28149 61.0337 2.59998 60.6251C1.91846 60.2164 1.36115 59.6298 0.987897 58.9282C0.614642 58.2267 0.439549 57.4367 0.481419 56.6432C0.523289 55.8496 0.780542 55.0825 1.22555 54.4241L35.7378 2.80885C36.2836 2.00111 37.0837 1.39886 38.0109 1.09771C38.9381 0.796572 39.9393 0.8138 40.8556 1.14666C41.7364 1.47369 42.4886 2.07567 43.0007 2.86348C43.5128 3.6513 43.7575 4.58306 43.6988 5.52084L40.3307 36.7525H66.0946C66.8892 36.7513 67.6692 36.9666 68.3507 37.3752C69.0322 37.7839 69.5895 38.3705 69.9628 39.072C70.336 39.7736 70.5111 40.5635 70.4693 41.3571C70.4274 42.1507 70.1702 42.9178 69.7251 43.5762L35.2129 95.1914C34.8116 95.7851 34.2707 96.271 33.6377 96.6066C33.0046 96.9422 32.2988 97.1172 31.5823 97.1161Z" fill="#5179C4"/>
</svg>
