<svg width="71" height="86" viewBox="0 0 71 86" fill="none" xmlns="http://www.w3.org/2000/svg">
<path id="Vector" d="M31.1433 0.624039C25.5117 1.45712 20.7131 3.95638 16.3144 8.37172C11.8158 12.8704 9.49978 17.3524 8.55006 23.4505C8.38344 24.5669 8.3168 26.7829 8.3168 31.9813V39.0292H7.25045C4.98446 39.0292 3.46825 39.5624 2.21862 40.812C1.33555 41.6951 0.935671 42.4449 0.669084 43.6612C0.419159 44.8941 0.402497 79.967 0.669084 81.2166C1.00232 82.7828 2.21862 84.349 3.73483 85.1488L4.56792 85.5986H35.4753H66.3828L67.2159 85.1488C68.7321 84.349 69.9484 82.7828 70.2816 81.2166C70.5482 79.967 70.5315 44.8941 70.2816 43.6612C70.015 42.4449 69.6151 41.6951 68.7321 40.812C67.4824 39.5624 65.9662 39.0292 63.7002 39.0292H62.6339V31.9813C62.6339 26.7829 62.5672 24.5669 62.4006 23.4505C61.4509 17.3524 59.1349 12.8704 54.6363 8.37172C50.121 3.85641 45.1225 1.30717 39.3242 0.557396C37.4914 0.324127 32.9261 0.357452 31.1433 0.624039ZM39.4075 12.6205C43.7395 13.7035 47.5884 16.9858 49.5545 21.2512C50.7541 23.8504 50.954 25.6332 50.9707 33.3976V39.0292H35.4753H19.98V33.3976C19.9966 25.6332 20.1966 23.8504 21.3962 21.2512C22.1627 19.585 23.0291 18.3354 24.3953 16.8858C28.2942 12.7871 33.7925 11.2209 39.4075 12.6205Z" fill="#5179C4"/>
</svg>
