<svg width="148" height="28" viewBox="0 0 148 28" fill="none" xmlns="http://www.w3.org/2000/svg">
<path d="M13.292 27.468C5.444 27.468 0.332 21.924 0.332 14.4C0.332 7.056 5.372 1.332 13.184 1.332C17.288 1.332 20.888 2.988 23.84 6.336L20.06 10.296C18.368 8.172 16.1 6.984 13.58 6.984C9.44 6.984 6.668 10.044 6.668 14.4C6.668 18.792 9.44 21.816 13.688 21.816C16.532 21.816 18.836 20.556 20.6 18.324L24.38 22.284C21.572 25.884 17.504 27.468 13.292 27.468ZM35.4213 8.028C40.9293 8.028 44.0253 10.728 44.0253 15.444V27H38.9493L38.8413 24.732C37.3293 26.244 34.9893 27.252 32.5053 27.252C28.6533 27.252 26.1333 24.912 26.1333 21.456C26.1333 17.568 29.2293 15.228 34.2693 15.228C35.7093 15.228 37.1133 15.408 38.6253 15.804V15.336C38.6253 13.356 37.4013 12.492 34.6293 12.492C32.6853 12.492 30.9933 12.96 28.7973 13.896L27.3933 9.828C30.2373 8.532 32.4333 8.028 35.4213 8.028ZM34.3053 23.184C36.7533 23.184 38.5173 21.636 38.6973 19.584C37.3293 19.188 36.0693 18.972 35.0253 18.972C32.9013 18.972 31.7853 19.728 31.7853 21.168C31.7853 22.428 32.6493 23.184 34.3053 23.184ZM57.7734 5.868C54.2454 5.868 52.3734 4.212 51.9414 0.827998L55.4334 0.143998C55.6494 1.872 56.4054 2.664 57.7734 2.664C59.1054 2.664 59.8614 1.872 60.0774 0.143998L63.5694 0.827998C63.1734 4.212 61.2654 5.868 57.7734 5.868ZM54.1374 18.684L62.1654 8.424H67.0974V27H61.3734V16.74L53.3454 27H48.4134V8.424H54.1374V18.684ZM70.174 8.424H87.994V13.716H82.054V27H76.186V13.716H70.174V8.424ZM114.49 11.34V1.8H120.718V27H114.49V17.028H105.166V27H98.974V1.8H105.166V11.34H114.49ZM141.314 11.34V1.8H147.542V27H141.314V17.028H131.99V27H125.798V1.8H131.99V11.34H141.314Z" fill="black"/>
</svg>
