<svg width="71" height="68" viewBox="0 0 71 68" fill="none" xmlns="http://www.w3.org/2000/svg">
<path id="Vector" d="M33.8917 0.70694C32.5791 1.29485 32.5928 1.25384 28.1766 11.6039C25.9343 16.8541 24.0612 21.1882 24.0202 21.2429C23.9792 21.2976 19.2622 21.7625 13.5335 22.282C2.32207 23.3074 2.67755 23.2528 1.61111 24.1551C0.202847 25.331 0.079795 28.0518 1.37867 29.4464C1.57009 29.6515 5.13859 32.8098 9.32235 36.474L16.9105 43.1461L16.8285 43.6247C16.7738 43.8844 15.7621 48.41 14.5589 53.6602C13.26 59.3753 12.385 63.518 12.385 63.9419C12.385 64.8169 13.0276 66.1841 13.6702 66.6764C14.7503 67.4967 15.9945 67.7565 17.225 67.4147C17.5258 67.3326 21.7232 64.8989 26.5496 62.0141C31.3896 59.1292 35.4093 56.7639 35.4914 56.7639C35.5734 56.7639 39.6068 59.1292 44.4468 62.0277C50.0388 65.3638 53.4706 67.3326 53.8808 67.442C56.2598 68.0436 58.5977 66.2388 58.5977 63.8051C58.5977 63.5044 57.586 58.7874 56.3418 53.3184C55.0976 47.8631 54.0858 43.3239 54.0858 43.2555C54.0858 43.1871 57.4493 40.1792 61.5783 36.5697C65.6937 32.9602 69.2486 29.8018 69.4947 29.5557C69.7408 29.3096 70.0416 28.8858 70.1783 28.6123C70.4654 28.0108 70.5748 26.3291 70.3697 25.6864C69.9732 24.5106 68.811 23.4989 67.5805 23.2528C67.2661 23.1844 62.5217 22.7332 57.0254 22.2273C51.5428 21.7351 47.0035 21.2839 46.9625 21.2429C46.9215 21.1882 45.0484 16.8404 42.8061 11.5902C38.3489 1.14445 38.4309 1.29485 37.05 0.693268C36.2297 0.351456 34.6984 0.351456 33.8917 0.70694Z" fill="#5179C4"/>
</svg>
