<svg width="64" height="64" viewBox="0 0 64 64" fill="none" xmlns="http://www.w3.org/2000/svg">
<g id="star 2">
<path id="Star 21" d="M30.2759 2.93263C31.0491 1.61745 32.9509 1.61745 33.7241 2.93263L39.011 11.9253C39.4638 12.6955 40.3726 13.072 41.2375 12.8475L51.3346 10.2271C52.8113 9.8439 54.1561 11.1887 53.7729 12.6654L51.1525 22.7625C50.928 23.6274 51.3045 24.5362 52.0747 24.989L61.0674 30.2759C62.3825 31.0491 62.3825 32.9509 61.0674 33.7241L52.0747 39.011C51.3045 39.4638 50.928 40.3726 51.1525 41.2375L53.7729 51.3346C54.1561 52.8113 52.8113 54.1561 51.3346 53.7729L41.2375 51.1525C40.3726 50.928 39.4638 51.3045 39.011 52.0747L33.7241 61.0674C32.9509 62.3825 31.0491 62.3825 30.2759 61.0674L24.989 52.0747C24.5362 51.3045 23.6274 50.928 22.7625 51.1525L12.6654 53.7729C11.1887 54.1561 9.8439 52.8113 10.2271 51.3346L12.8475 41.2375C13.072 40.3726 12.6955 39.4638 11.9253 39.011L2.93263 33.7241C1.61745 32.9509 1.61745 31.0491 2.93263 30.2759L11.9253 24.989C12.6955 24.5362 13.072 23.6274 12.8475 22.7625L10.2271 12.6654C9.8439 11.1887 11.1887 9.8439 12.6654 10.2271L22.7625 12.8475C23.6274 13.072 24.5362 12.6955 24.989 11.9253L30.2759 2.93263Z" fill="#B9CFF8"/>
<path id="Shape" d="M42 25L28.9375 38L23 32.0909" stroke="#5888DE" stroke-width="4" stroke-linecap="round" stroke-linejoin="round"/>
</g>
</svg>
