<svg width="98" height="98" viewBox="0 0 98 98" fill="none" xmlns="http://www.w3.org/2000/svg">
<path d="M47.2759 1.93263C48.0491 0.617456 49.9509 0.617454 50.7241 1.93262L60.385 18.3653C60.8379 19.1356 61.7467 19.512 62.6115 19.2876L81.0625 14.4992C82.5392 14.116 83.884 15.4608 83.5008 16.9375L78.7124 35.3885C78.488 36.2533 78.8644 37.1621 79.6347 37.615L96.0674 47.2759C97.3825 48.0491 97.3825 49.9509 96.0674 50.7241L79.6347 60.385C78.8644 60.8379 78.488 61.7467 78.7124 62.6115L83.5008 81.0625C83.884 82.5392 82.5392 83.884 81.0625 83.5008L62.6115 78.7124C61.7467 78.488 60.8379 78.8644 60.385 79.6347L50.7241 96.0674C49.9509 97.3825 48.0491 97.3825 47.2759 96.0674L37.615 79.6347C37.1621 78.8644 36.2533 78.488 35.3885 78.7124L16.9375 83.5008C15.4608 83.884 14.116 82.5392 14.4992 81.0625L19.2876 62.6115C19.512 61.7467 19.1356 60.8379 18.3653 60.385L1.93263 50.7241C0.617456 49.9509 0.617454 48.0491 1.93262 47.2759L18.3653 37.615C19.1356 37.1621 19.512 36.2533 19.2876 35.3885L14.4992 16.9375C14.116 15.4608 15.4608 14.116 16.9375 14.4992L35.3885 19.2876C36.2533 19.512 37.1621 19.1356 37.615 18.3653L47.2759 1.93263Z" fill="#5888DE"/>
</svg>
